<?xml version="1.0" encoding="UTF-8"?>
<svg xmlns="http://www.w3.org/2000/svg" version="2.0" height="50" width="150">
<polyline points=
"100,330 167.99999999999997,450 178.0000000000001,420 193.99999999999977,330 203.99999999999991,270 214.99999999999986,270 225.9999999999998,210 253.0000000000001,165 257.99999999999983,150 264.00000000000006,135 271.0000000000001,135 295.0000000000003,210 300.0,255 318.9999999999998,405 336.9999999999998,405 340.99999999999966,375 347.99999999999966,315 371.0000000000001,120 378.0000000000001,90 432.0,165 435.99999999999994,165 445.0000000000003,135 457.0,60 463.0000000000002,30 468.9999999999998,15 488.0000000000002,60 500.9999999999998,165 504.9999999999997,180 518.0,255 525.0,285 565.9999999999997,330 565.9999999999997,465 100,465 100,330 "
style="fill:white;stroke:red;stroke-width:4" />
</svg>